<mxfile host="app.diagrams.net" agent="Mozilla/5.0 (Windows NT 10.0; Win64; x64) AppleWebKit/537.36 (KHTML, like Gecko) Chrome/130.0.0.0 Safari/537.36 Edg/130.0.0.0" version="24.8.2">
  <diagram name="Page-1" id="4pQi7S5RJBcd6sGBScf7">
    <mxGraphModel grid="1" page="1" gridSize="10" guides="1" tooltips="1" connect="1" arrows="1" fold="1" pageScale="1" pageWidth="850" pageHeight="1100" math="0" shadow="0">
      <root>
        <mxCell id="0" />
        <mxCell id="1" parent="0" />
        <mxCell id="T5a-uGAOFGgZZIe0_wyP-32" value="Printer" style="swimlane;whiteSpace=wrap" vertex="1" parent="1">
          <mxGeometry x="735.5" y="370" width="280" height="1022" as="geometry" />
        </mxCell>
        <mxCell id="T5a-uGAOFGgZZIe0_wyP-33" value="Update configurations" style="rounded=1;whiteSpace=wrap;html=1;" vertex="1" parent="T5a-uGAOFGgZZIe0_wyP-32">
          <mxGeometry x="70.5" y="592" width="120" height="60" as="geometry" />
        </mxCell>
        <mxCell id="T5a-uGAOFGgZZIe0_wyP-34" value="" style="rhombus;fillColor=#ffffc0;strokeColor=#ff0000;" vertex="1" parent="T5a-uGAOFGgZZIe0_wyP-32">
          <mxGeometry x="108.25" y="722" width="44.5" height="40" as="geometry" />
        </mxCell>
        <mxCell id="T5a-uGAOFGgZZIe0_wyP-35" value="" style="endArrow=open;strokeColor=#FF0000;endFill=1;rounded=0" edge="1" parent="T5a-uGAOFGgZZIe0_wyP-32" source="T5a-uGAOFGgZZIe0_wyP-33" target="T5a-uGAOFGgZZIe0_wyP-34">
          <mxGeometry relative="1" as="geometry">
            <mxPoint x="140.5" y="792" as="sourcePoint" />
            <mxPoint x="141" y="869" as="targetPoint" />
          </mxGeometry>
        </mxCell>
        <mxCell id="T5a-uGAOFGgZZIe0_wyP-40" value="[not supported feature/&#xa;exception]" style="endArrow=open;strokeColor=#FF0000;endFill=1;rounded=0;exitX=0;exitY=0.5;exitDx=0;exitDy=0;" edge="1" parent="1" source="T5a-uGAOFGgZZIe0_wyP-34" target="T5a-uGAOFGgZZIe0_wyP-96">
          <mxGeometry x="-0.3051" y="-22" relative="1" as="geometry">
            <mxPoint x="261" y="1102" as="sourcePoint" />
            <mxPoint x="641" y="1062" as="targetPoint" />
            <Array as="points">
              <mxPoint x="641" y="1112" />
            </Array>
            <mxPoint as="offset" />
          </mxGeometry>
        </mxCell>
        <mxCell id="T5a-uGAOFGgZZIe0_wyP-41" value="[successful]" style="endArrow=open;strokeColor=#FF0000;endFill=1;rounded=0;exitX=0.5;exitY=1;exitDx=0;exitDy=0;entryX=0.449;entryY=0.32;entryDx=0;entryDy=0;entryPerimeter=0;" edge="1" parent="1" source="T5a-uGAOFGgZZIe0_wyP-34" target="T5a-uGAOFGgZZIe0_wyP-114">
          <mxGeometry relative="1" as="geometry">
            <mxPoint x="791" y="1142" as="sourcePoint" />
            <mxPoint x="631.5" y="1202" as="targetPoint" />
            <Array as="points">
              <mxPoint x="866" y="1221" />
              <mxPoint x="781" y="1222" />
            </Array>
          </mxGeometry>
        </mxCell>
        <mxCell id="T5a-uGAOFGgZZIe0_wyP-43" value="&lt;font style=&quot;font-size: 48px;&quot;&gt;CHANGE PRINTERS CONFIGURATIONS&lt;/font&gt;" style="text;html=1;align=center;verticalAlign=middle;whiteSpace=wrap;rounded=0;fontSize=16;" vertex="1" parent="1">
          <mxGeometry x="141" width="910" height="30" as="geometry" />
        </mxCell>
        <mxCell id="T5a-uGAOFGgZZIe0_wyP-73" value="Printer manager" style="swimlane;whiteSpace=wrap" vertex="1" parent="1">
          <mxGeometry x="175.5" y="370" width="280" height="1022" as="geometry" />
        </mxCell>
        <mxCell id="T5a-uGAOFGgZZIe0_wyP-74" value="" style="ellipse;shape=startState;fillColor=#000000;strokeColor=#ff0000;" vertex="1" parent="T5a-uGAOFGgZZIe0_wyP-73">
          <mxGeometry x="100" y="40" width="30" height="30" as="geometry" />
        </mxCell>
        <mxCell id="T5a-uGAOFGgZZIe0_wyP-75" value="" style="edgeStyle=elbowEdgeStyle;elbow=horizontal;verticalAlign=bottom;endArrow=open;endSize=8;strokeColor=#FF0000;endFill=1;rounded=0" edge="1" parent="T5a-uGAOFGgZZIe0_wyP-73" source="T5a-uGAOFGgZZIe0_wyP-74" target="T5a-uGAOFGgZZIe0_wyP-76">
          <mxGeometry x="100" y="40" as="geometry">
            <mxPoint x="115.5" y="110" as="targetPoint" />
          </mxGeometry>
        </mxCell>
        <mxCell id="T5a-uGAOFGgZZIe0_wyP-76" value="Log in to the&amp;nbsp;&lt;div&gt;SPSO&amp;nbsp;&lt;span style=&quot;background-color: initial;&quot;&gt;service&lt;/span&gt;&lt;/div&gt;" style="rounded=1;whiteSpace=wrap;html=1;" vertex="1" parent="T5a-uGAOFGgZZIe0_wyP-73">
          <mxGeometry x="55" y="102" width="120" height="60" as="geometry" />
        </mxCell>
        <mxCell id="T5a-uGAOFGgZZIe0_wyP-77" value="Choose printer&lt;div&gt;and change config&lt;/div&gt;" style="rounded=1;whiteSpace=wrap;html=1;" vertex="1" parent="T5a-uGAOFGgZZIe0_wyP-73">
          <mxGeometry x="65.5" y="472" width="120" height="60" as="geometry" />
        </mxCell>
        <mxCell id="T5a-uGAOFGgZZIe0_wyP-78" value="[unsuccessful]" style="edgeStyle=elbowEdgeStyle;elbow=horizontal;align=left;verticalAlign=top;endArrow=open;endSize=8;strokeColor=#FF0000;endFill=1;rounded=0;" edge="1" parent="T5a-uGAOFGgZZIe0_wyP-73">
          <mxGeometry x="0.2027" y="-20" relative="1" as="geometry">
            <mxPoint x="55.000000000000114" y="132" as="targetPoint" />
            <mxPoint x="373.75" y="271.9999999999999" as="sourcePoint" />
            <Array as="points">
              <mxPoint x="25.5" y="202" />
            </Array>
            <mxPoint x="1" as="offset" />
          </mxGeometry>
        </mxCell>
        <mxCell id="T5a-uGAOFGgZZIe0_wyP-79" value="Show successful&lt;div&gt;messgae&lt;/div&gt;" style="rounded=1;whiteSpace=wrap;html=1;" vertex="1" parent="T5a-uGAOFGgZZIe0_wyP-73">
          <mxGeometry x="55" y="872" width="120" height="60" as="geometry" />
        </mxCell>
        <mxCell id="T5a-uGAOFGgZZIe0_wyP-80" value="" style="ellipse;shape=endState;fillColor=#000000;strokeColor=#ff0000" vertex="1" parent="T5a-uGAOFGgZZIe0_wyP-73">
          <mxGeometry x="100" y="962" width="30" height="30" as="geometry" />
        </mxCell>
        <mxCell id="T5a-uGAOFGgZZIe0_wyP-81" value="" style="endArrow=open;strokeColor=#FF0000;endFill=1;rounded=0" edge="1" parent="T5a-uGAOFGgZZIe0_wyP-73" source="T5a-uGAOFGgZZIe0_wyP-79" target="T5a-uGAOFGgZZIe0_wyP-80">
          <mxGeometry relative="1" as="geometry">
            <mxPoint x="115.5" y="902" as="sourcePoint" />
          </mxGeometry>
        </mxCell>
        <mxCell id="T5a-uGAOFGgZZIe0_wyP-82" value="Change printer&lt;div&gt;configurartions&lt;/div&gt;" style="rounded=1;whiteSpace=wrap;html=1;" vertex="1" parent="T5a-uGAOFGgZZIe0_wyP-73">
          <mxGeometry x="65.5" y="322" width="120" height="60" as="geometry" />
        </mxCell>
        <mxCell id="T5a-uGAOFGgZZIe0_wyP-83" value="SPSO Service" style="swimlane;whiteSpace=wrap" vertex="1" parent="1">
          <mxGeometry x="456" y="370" width="280" height="1022" as="geometry" />
        </mxCell>
        <mxCell id="T5a-uGAOFGgZZIe0_wyP-84" value="" style="rhombus;fillColor=#ffffc0;strokeColor=#ff0000;" vertex="1" parent="T5a-uGAOFGgZZIe0_wyP-83">
          <mxGeometry x="93.25" y="252" width="44.5" height="40" as="geometry" />
        </mxCell>
        <mxCell id="T5a-uGAOFGgZZIe0_wyP-85" value="" style="endArrow=open;strokeColor=#FF0000;endFill=1;rounded=0" edge="1" parent="T5a-uGAOFGgZZIe0_wyP-83" source="T5a-uGAOFGgZZIe0_wyP-86" target="T5a-uGAOFGgZZIe0_wyP-84">
          <mxGeometry relative="1" as="geometry">
            <mxPoint x="130" y="245" as="sourcePoint" />
          </mxGeometry>
        </mxCell>
        <mxCell id="T5a-uGAOFGgZZIe0_wyP-86" value="Authenticate&lt;div&gt;user&lt;/div&gt;" style="rounded=1;whiteSpace=wrap;html=1;" vertex="1" parent="T5a-uGAOFGgZZIe0_wyP-83">
          <mxGeometry x="55.5" y="152" width="120" height="60" as="geometry" />
        </mxCell>
        <mxCell id="T5a-uGAOFGgZZIe0_wyP-87" style="edgeStyle=none;curved=1;rounded=0;orthogonalLoop=1;jettySize=auto;html=1;exitX=1;exitY=0.5;exitDx=0;exitDy=0;fontSize=12;startSize=8;endSize=8;" edge="1" parent="T5a-uGAOFGgZZIe0_wyP-83" source="T5a-uGAOFGgZZIe0_wyP-84" target="T5a-uGAOFGgZZIe0_wyP-84">
          <mxGeometry relative="1" as="geometry" />
        </mxCell>
        <mxCell id="T5a-uGAOFGgZZIe0_wyP-88" style="edgeStyle=none;curved=1;rounded=0;orthogonalLoop=1;jettySize=auto;html=1;exitX=0;exitY=0.5;exitDx=0;exitDy=0;fontSize=12;startSize=8;endSize=8;" edge="1" parent="T5a-uGAOFGgZZIe0_wyP-83" source="T5a-uGAOFGgZZIe0_wyP-84" target="T5a-uGAOFGgZZIe0_wyP-84">
          <mxGeometry relative="1" as="geometry" />
        </mxCell>
        <mxCell id="T5a-uGAOFGgZZIe0_wyP-89" value="Apply new config&lt;div&gt;to printer&lt;/div&gt;" style="rounded=1;whiteSpace=wrap;html=1;" vertex="1" parent="T5a-uGAOFGgZZIe0_wyP-83">
          <mxGeometry x="55.5" y="522" width="120" height="60" as="geometry" />
        </mxCell>
        <mxCell id="T5a-uGAOFGgZZIe0_wyP-95" value="Show list of available&lt;div&gt;printers&lt;/div&gt;" style="rounded=1;whiteSpace=wrap;html=1;" vertex="1" parent="T5a-uGAOFGgZZIe0_wyP-83">
          <mxGeometry x="55.5" y="402" width="120" height="60" as="geometry" />
        </mxCell>
        <mxCell id="T5a-uGAOFGgZZIe0_wyP-96" value="Show error Message" style="rounded=1;whiteSpace=wrap;html=1;" vertex="1" parent="T5a-uGAOFGgZZIe0_wyP-83">
          <mxGeometry x="55.5" y="712" width="120" height="60" as="geometry" />
        </mxCell>
        <mxCell id="T5a-uGAOFGgZZIe0_wyP-113" value="Send Successful&lt;div&gt;Message&lt;/div&gt;" style="rounded=1;whiteSpace=wrap;html=1;" vertex="1" parent="T5a-uGAOFGgZZIe0_wyP-83">
          <mxGeometry x="62.5" y="782" width="120" height="60" as="geometry" />
        </mxCell>
        <mxCell id="T5a-uGAOFGgZZIe0_wyP-114" value="" style="shape=line;strokeWidth=6;strokeColor=#ff0000;rotation=90" vertex="1" parent="T5a-uGAOFGgZZIe0_wyP-83">
          <mxGeometry x="155" y="849.5" width="125" height="15" as="geometry" />
        </mxCell>
        <mxCell id="T5a-uGAOFGgZZIe0_wyP-115" value="" style="endArrow=open;strokeColor=#FF0000;endFill=1;rounded=0;exitX=0.146;exitY=0.337;exitDx=0;exitDy=0;exitPerimeter=0;entryX=1;entryY=0.5;entryDx=0;entryDy=0;" edge="1" parent="T5a-uGAOFGgZZIe0_wyP-83" source="T5a-uGAOFGgZZIe0_wyP-114" target="T5a-uGAOFGgZZIe0_wyP-113">
          <mxGeometry relative="1" as="geometry">
            <mxPoint x="-158" y="922" as="sourcePoint" />
            <mxPoint x="-158" y="952" as="targetPoint" />
          </mxGeometry>
        </mxCell>
        <mxCell id="T5a-uGAOFGgZZIe0_wyP-116" value="" style="shape=line;strokeWidth=6;strokeColor=#ff0000;rotation=90" vertex="1" parent="T5a-uGAOFGgZZIe0_wyP-83">
          <mxGeometry x="-27.5" y="849.5" width="125" height="15" as="geometry" />
        </mxCell>
        <mxCell id="T5a-uGAOFGgZZIe0_wyP-117" value="" style="endArrow=open;strokeColor=#FF0000;endFill=1;rounded=0;entryX=0.153;entryY=0.441;entryDx=0;entryDy=0;entryPerimeter=0;" edge="1" parent="T5a-uGAOFGgZZIe0_wyP-83" source="T5a-uGAOFGgZZIe0_wyP-113" target="T5a-uGAOFGgZZIe0_wyP-116">
          <mxGeometry relative="1" as="geometry">
            <mxPoint x="82.5" y="812" as="sourcePoint" />
            <mxPoint x="192.5" y="822" as="targetPoint" />
          </mxGeometry>
        </mxCell>
        <mxCell id="T5a-uGAOFGgZZIe0_wyP-118" value="Update printers&lt;div&gt;config on SPSO&lt;/div&gt;" style="rounded=1;whiteSpace=wrap;html=1;" vertex="1" parent="T5a-uGAOFGgZZIe0_wyP-83">
          <mxGeometry x="62.5" y="864.5" width="120" height="60" as="geometry" />
        </mxCell>
        <mxCell id="T5a-uGAOFGgZZIe0_wyP-119" value="" style="endArrow=open;strokeColor=#FF0000;endFill=1;rounded=0;exitX=0.146;exitY=0.337;exitDx=0;exitDy=0;exitPerimeter=0;entryX=1;entryY=0.5;entryDx=0;entryDy=0;fontStyle=1" edge="1" parent="T5a-uGAOFGgZZIe0_wyP-83">
          <mxGeometry relative="1" as="geometry">
            <mxPoint x="219.5" y="895" as="sourcePoint" />
            <mxPoint x="182.5" y="894" as="targetPoint" />
          </mxGeometry>
        </mxCell>
        <mxCell id="T5a-uGAOFGgZZIe0_wyP-120" value="" style="endArrow=open;strokeColor=#FF0000;endFill=1;rounded=0;entryX=0.795;entryY=0.364;entryDx=0;entryDy=0;entryPerimeter=0;" edge="1" parent="T5a-uGAOFGgZZIe0_wyP-83" source="T5a-uGAOFGgZZIe0_wyP-118" target="T5a-uGAOFGgZZIe0_wyP-116">
          <mxGeometry relative="1" as="geometry">
            <mxPoint x="62.5" y="894.21" as="sourcePoint" />
            <mxPoint x="42.5" y="894" as="targetPoint" />
          </mxGeometry>
        </mxCell>
        <mxCell id="T5a-uGAOFGgZZIe0_wyP-97" value="" style="endArrow=open;strokeColor=#FF0000;endFill=1;rounded=0;entryX=0.5;entryY=0;entryDx=0;entryDy=0;" edge="1" parent="1" source="T5a-uGAOFGgZZIe0_wyP-76" target="T5a-uGAOFGgZZIe0_wyP-86">
          <mxGeometry relative="1" as="geometry">
            <mxPoint x="290.5" y="530" as="sourcePoint" />
            <mxPoint x="290.5" y="702" as="targetPoint" />
            <Array as="points">
              <mxPoint x="571" y="502" />
            </Array>
          </mxGeometry>
        </mxCell>
        <mxCell id="T5a-uGAOFGgZZIe0_wyP-98" value="" style="endArrow=open;strokeColor=#FF0000;endFill=1;rounded=0;exitX=0.385;exitY=0.633;exitDx=0;exitDy=0;entryX=0.5;entryY=0;entryDx=0;entryDy=0;exitPerimeter=0;" edge="1" parent="1" source="T5a-uGAOFGgZZIe0_wyP-116" target="T5a-uGAOFGgZZIe0_wyP-79">
          <mxGeometry relative="1" as="geometry">
            <mxPoint x="511.5" y="1202" as="sourcePoint" />
            <mxPoint x="300.5" y="1342" as="targetPoint" />
            <Array as="points">
              <mxPoint x="291" y="1213" />
            </Array>
          </mxGeometry>
        </mxCell>
        <mxCell id="T5a-uGAOFGgZZIe0_wyP-99" value="" style="edgeStyle=elbowEdgeStyle;elbow=horizontal;strokeColor=#FF0000;endArrow=open;endFill=1;rounded=0;exitX=0;exitY=0.5;exitDx=0;exitDy=0;entryX=0;entryY=0.5;entryDx=0;entryDy=0;" edge="1" parent="1" source="T5a-uGAOFGgZZIe0_wyP-96" target="T5a-uGAOFGgZZIe0_wyP-77">
          <mxGeometry x="-0.8739" width="100" height="100" relative="1" as="geometry">
            <mxPoint x="548.75" y="882" as="sourcePoint" />
            <mxPoint x="240.0000000000001" y="502" as="targetPoint" />
            <Array as="points">
              <mxPoint x="201.5" y="802" />
            </Array>
            <mxPoint as="offset" />
          </mxGeometry>
        </mxCell>
        <mxCell id="T5a-uGAOFGgZZIe0_wyP-100" value="" style="edgeStyle=elbowEdgeStyle;elbow=horizontal;strokeColor=#FF0000;endArrow=open;endFill=1;rounded=0;" edge="1" parent="1" source="T5a-uGAOFGgZZIe0_wyP-77" target="T5a-uGAOFGgZZIe0_wyP-89">
          <mxGeometry width="100" height="100" relative="1" as="geometry">
            <mxPoint x="291" y="892" as="sourcePoint" />
            <mxPoint x="511.5" y="922" as="targetPoint" />
            <Array as="points">
              <mxPoint x="291" y="922" />
            </Array>
          </mxGeometry>
        </mxCell>
        <mxCell id="T5a-uGAOFGgZZIe0_wyP-101" value="[successful]" style="edgeStyle=elbowEdgeStyle;elbow=horizontal;strokeColor=#FF0000;endArrow=open;endFill=1;rounded=0;" edge="1" parent="1" source="T5a-uGAOFGgZZIe0_wyP-84" target="T5a-uGAOFGgZZIe0_wyP-82">
          <mxGeometry width="100" height="100" relative="1" as="geometry">
            <mxPoint x="571" y="692.0005617977529" as="sourcePoint" />
            <mxPoint x="361" y="722.45" as="targetPoint" />
            <Array as="points">
              <mxPoint x="571" y="722.45" />
            </Array>
          </mxGeometry>
        </mxCell>
        <mxCell id="T5a-uGAOFGgZZIe0_wyP-102" value="" style="edgeStyle=elbowEdgeStyle;elbow=horizontal;verticalAlign=bottom;endArrow=open;endSize=8;strokeColor=#FF0000;endFill=1;rounded=0" edge="1" parent="1" source="T5a-uGAOFGgZZIe0_wyP-82" target="T5a-uGAOFGgZZIe0_wyP-95">
          <mxGeometry x="100" y="40" as="geometry">
            <mxPoint x="300.5" y="482" as="targetPoint" />
            <mxPoint x="300.5" y="450" as="sourcePoint" />
            <Array as="points">
              <mxPoint x="301" y="762" />
            </Array>
          </mxGeometry>
        </mxCell>
        <mxCell id="T5a-uGAOFGgZZIe0_wyP-103" value="" style="edgeStyle=elbowEdgeStyle;elbow=horizontal;verticalAlign=bottom;endArrow=open;endSize=8;strokeColor=#FF0000;endFill=1;rounded=0" edge="1" parent="1" source="T5a-uGAOFGgZZIe0_wyP-95" target="T5a-uGAOFGgZZIe0_wyP-77">
          <mxGeometry x="100" y="40" as="geometry">
            <mxPoint x="522" y="812" as="targetPoint" />
            <mxPoint x="311" y="762" as="sourcePoint" />
            <Array as="points">
              <mxPoint x="572" y="872" />
            </Array>
          </mxGeometry>
        </mxCell>
        <mxCell id="T5a-uGAOFGgZZIe0_wyP-104" value="" style="endArrow=open;strokeColor=#FF0000;endFill=1;rounded=0;" edge="1" parent="1" source="T5a-uGAOFGgZZIe0_wyP-89" target="T5a-uGAOFGgZZIe0_wyP-33">
          <mxGeometry relative="1" as="geometry">
            <mxPoint x="604" y="1022" as="sourcePoint" />
            <mxPoint x="642" y="1212" as="targetPoint" />
            <Array as="points">
              <mxPoint x="866" y="922" />
            </Array>
          </mxGeometry>
        </mxCell>
        <mxCell id="4GGcHW3WpuLSOKKP-wrL-1" value="&lt;p style=&quot;forced-color-adjust: none; color: rgb(0, 0, 0); font-family: Helvetica; font-size: 16px; font-style: normal; font-variant-ligatures: normal; font-variant-caps: normal; font-weight: 400; letter-spacing: normal; orphans: 2; text-indent: 0px; text-transform: none; widows: 2; word-spacing: 0px; -webkit-text-stroke-width: 0px; white-space: normal; background-color: rgb(251, 251, 251); text-decoration-thickness: initial; text-decoration-style: initial; text-decoration-color: initial; text-align: justify;&quot;&gt;The&lt;span&gt;&amp;nbsp;&lt;/span&gt;&lt;strong style=&quot;forced-color-adjust: none;&quot;&gt;Change Printer Configuration&lt;/strong&gt;&lt;span&gt;&amp;nbsp;&lt;/span&gt;use case describes the process of modifying a printer&#39;s configuration settings. The user (SPSO) selects the option to change the printer&#39;s configuration, prompting the system to display available configuration options. After the user makes the necessary changes and submits them, the system updates the printer&#39;s configuration and confirms the successful modification.&lt;/p&gt;&lt;p style=&quot;forced-color-adjust: none; color: rgb(0, 0, 0); font-family: Helvetica; font-size: 16px; font-style: normal; font-variant-ligatures: normal; font-variant-caps: normal; font-weight: 400; letter-spacing: normal; orphans: 2; text-indent: 0px; text-transform: none; widows: 2; word-spacing: 0px; -webkit-text-stroke-width: 0px; white-space: normal; background-color: rgb(251, 251, 251); text-decoration-thickness: initial; text-decoration-style: initial; text-decoration-color: initial; text-align: justify;&quot;&gt;In an alternative scenario, if the user attempts to modify settings that are not supported by the selected printer (e.g., unavailable features), the system displays an error message and prompts the user to select valid configuration options.&lt;/p&gt;&lt;p style=&quot;forced-color-adjust: none; color: rgb(0, 0, 0); font-family: Helvetica; font-size: 16px; font-style: normal; font-variant-ligatures: normal; font-variant-caps: normal; font-weight: 400; letter-spacing: normal; orphans: 2; text-indent: 0px; text-transform: none; widows: 2; word-spacing: 0px; -webkit-text-stroke-width: 0px; white-space: normal; background-color: rgb(251, 251, 251); text-decoration-thickness: initial; text-decoration-style: initial; text-decoration-color: initial; text-align: justify;&quot;&gt;In case of an exception, such as a system error occurring during the configuration change, the system will display an error message and generate an error log for further review.&lt;/p&gt;" style="text;whiteSpace=wrap;html=1;" vertex="1" parent="1">
          <mxGeometry x="316" y="30" width="560" height="340" as="geometry" />
        </mxCell>
      </root>
    </mxGraphModel>
  </diagram>
</mxfile>
